A group of hardened Nazi killers stalk their prey in Nazi-occupied France as a Jewish cinema owner plots to take down top-ranking SS officers during the official premiere of a high-profile German propaganda film. As far as Lt. Aldo Raine (aka Aldo the Apache," Brad Pitt) -- is concerned, the only good Nazi is a dead Nazi. Raine's mission is to strike fear into the heart of Adolf Hitler by brutally murdering as many goose-steppers as possible, or die trying. In order to accomplish that goal, Lt. Raine recruits a ruthless team of cold-blooded killers known as "The Basterds" which includes baseball-bat-wielding Bostonian Sgt. Donnie Donowitz (aka "The Bear Jew," Eli Roth) and steely psychopath Sgt. Hugo Stiglitz (Til Schweiger), among others. When the Basterds' secret rendezvous with turncoat German actress Bridget von Hammersmark (Diane Kruger) goes awry, they learn that the Nazis will be staging the French premiere of "The Nation's Pride," a rousing propaganda film based on the exploits of German hero Fredrick Zoller (Daniel Brühl), at a modest theater owned by Jewish cinephile Shoshanna Dreyfus (Mélanie Laurent), posing as a Gentile after the brutal murder of her family by the ruthless Col. Hans Landa (Christoph Waltz). As the Basterds hatch an explosive plan to take out as many Nazis as possible at the premiere, they remain completely oblivious to the fact that Shoshanna, too, longs to bring the Third Reich to its knees, and that she's willing to sacrifice her beloved theater in the process. 

   General
      Complete name : Inglourious.Basterds.2009.720p.BDRip.XviD.AC3-ViSiON.avi
      Format : AVI
      Format/Info : Audio Video Interleave
      Format profile : OpenDML
      File size : 4.30 GiB
      Duration : 2h 32mn
      Overall bit rate : 4 027 Kbps
      Writing application : VirtualDubMod 1.5.10.2 (build 2542/release)
      Writing library : VirtualDubMod build 2542/release
   Video #0
      ID : 0
      Format : MPEG-4 Visual
      Format profile : AdvancedSimple@L5
      Format settings, BVOP : Yes
      Format settings, QPel : No
      Format settings, GMC : No warppoints
      Format settings, Matrix : Default (H.263)
      Muxing mode : Packed bitstream
      Codec ID : XVID
      Codec ID/Hint : XviD
      Duration : 2h 32mn
      Bit rate : 3 569 Kbps
      Width : 1 280 pixels
      Height : 544 pixels
      Display aspect ratio : 2.35:1
      Frame rate : 23.976 fps
      Resolution : 24 bits
      Colorimetry : 4:2:0
      Scan type : Progressive
      Bits/(Pixel*Frame) : 0.214
      Stream size : 3.81 GiB (89%)
      Writing library : XviD 1.2.1 (UTC 2008-12-04)
   Audio #1
      ID : 1
      Format : AC-3
      Format/Info : Audio Coding 3
      Codec ID : 2000
      Duration : 2h 32mn
      Bit rate mode : Constant
      Bit rate : 448 Kbps
      Channel(s) : 6 channels
      Channel positions : Front: L C R, Surround: L R, LFE
      Sampling rate : 48.0 KHz
      Stream size : 490 MiB (11%)
      Alignment : Split accross interleaves
      Interleave, duration : 42 ms (1.00 video frame)
      Interleave, preload duration : 500 ms
 
http://www.imdb.com/title/tt0361748/

No hardsubs; Arabic, Brazilian, Czech, Danish, Dutch,  English (for foreign parts), French,  Greek, Hungarian, Polish, Romanian, Serbian, Slovak, Spanish, Swedish, Turkish subtitles